<?xml version="1.0" encoding="UTF-8" standalone="no"?>
<!-- Created with Inkscape (http://www.inkscape.org/) -->

<svg
   width="210mm"
   height="297mm"
   viewBox="0 0 210 297"
   version="1.1"
   id="svg5"
   inkscape:version="1.2.1 (9c6d41e410, 2022-07-14, custom)"
   sodipodi:docname="beryl.svg"
   xmlns:inkscape="http://www.inkscape.org/namespaces/inkscape"
   xmlns:sodipodi="http://sodipodi.sourceforge.net/DTD/sodipodi-0.dtd"
   xmlns="http://www.w3.org/2000/svg"
   xmlns:svg="http://www.w3.org/2000/svg">
  <sodipodi:namedview
     id="namedview7"
     pagecolor="#505050"
     bordercolor="#eeeeee"
     borderopacity="1"
     inkscape:showpageshadow="0"
     inkscape:pageopacity="0"
     inkscape:pagecheckerboard="0"
     inkscape:deskcolor="#505050"
     inkscape:document-units="mm"
     showgrid="false"
     inkscape:zoom="1.4593138"
     inkscape:cx="145.61638"
     inkscape:cy="615.01507"
     inkscape:window-width="1920"
     inkscape:window-height="1006"
     inkscape:window-x="0"
     inkscape:window-y="0"
     inkscape:window-maximized="1"
     inkscape:current-layer="layer1" />
  <defs
     id="defs2" />
  <g
     inkscape:label="Layer 1"
     inkscape:groupmode="layer"
     id="layer1">
    <path
       style="fill:#6d9f71;fill-opacity:1;stroke:none;stroke-width:0.264583px;stroke-linecap:butt;stroke-linejoin:miter;stroke-opacity:1"
       d="m 46.282472,176.65419 0.726752,-9.96682 16.615111,-20.58217 16.253116,-2.10939 19.189334,22.7929 56.052795,2.78892 5.90349,3.11193 2.03883,4.28533 3.20545,29.74463 -11.22141,25.12557 -52.39895,14.24252 -23.81821,-8.84392 -23.969136,-4.24315 -7.462705,-14.54097 -3.161599,-15.61011 1.785197,-24.79839 z"
       id="path16570"
       sodipodi:nodetypes="ccccccccccccccccc" />
    <path
       style="fill:#6fabda;fill-opacity:0.69999999;stroke:none;stroke-width:0.264583px;stroke-linecap:butt;stroke-linejoin:miter;stroke-opacity:1"
       d="m 150.2279,203.51983 3.91801,-2.9748 0.91684,-5.56414 1.80512,-11.1093 -3.68511,-4.23635 -11.5016,-0.70424 -24.19984,0.77589 -4.11031,4.26087 0.68561,5.52573 3.86052,9.16667 5.46885,5.44061 8.30469,0.45141 z"
       id="path1870-6" />
    <path
       style="fill:#6fabda;stroke:none;stroke-width:0.264583px;stroke-linecap:butt;stroke-linejoin:miter;stroke-opacity:1;fill-opacity:0.69999999"
       d="m 59.651296,203.5198 -3.917987,-2.9748 -0.916834,-5.56414 -1.805107,-11.1093 3.68509,-4.23635 11.501528,-0.70424 24.199701,0.77589 4.110292,4.26087 -0.68561,5.52573 -3.860501,9.16667 -5.468807,5.44061 -8.304647,0.45141 z"
       id="path1870" />
    <path
       id="path18752-0"
       style="fill:#4291ce;fill-opacity:1;stroke:none;stroke-width:0.264583px;stroke-linecap:butt;stroke-linejoin:miter;stroke-opacity:1"
       d="M 104.41016 181.28609 C 101.43866 181.2901 98.16545 181.44245 95.863916 181.84213 L 97.38217 186.97877 C 98.58302 186.45803 101.89521 185.74635 104.99979 185.63311 C 108.10438 185.74635 111.41708 186.45803 112.61793 186.97877 L 114.13619 181.84213 C 111.68122 181.4158 108.12045 181.27079 104.99979 181.28713 C 104.80475 181.2861 104.60826 181.28583 104.41016 181.28609 z " />
    <path
       style="fill:#24233b;fill-opacity:1;stroke:none;stroke-width:0.264583px;stroke-linecap:butt;stroke-linejoin:miter;stroke-opacity:1"
       d="m 46.406294,176.15928 c -10.70656,-2.73047 -14.156332,-8.01241 -14.156332,-8.01241 l 12.201483,-9.01084 -12.85285,-5.13278 c 4.965802,-4.96195 10.54023,-10.29801 14.89335,-16.76415 l 8.739181,23.84226 c -1.905903,4.8469 -5.529786,10.65271 -8.824832,15.07792 z"
       id="path445"
       sodipodi:nodetypes="ccccccc" />
    <path
       style="fill:#2e2d4d;stroke:none;stroke-width:0.264583px;stroke-linecap:butt;stroke-linejoin:miter;stroke-opacity:1;fill-opacity:1"
       d="M 55.204687,161.15386 42.936731,127.58055 28.781504,89.220711 C 23.057218,71.221372 24.247149,53.966904 31.974569,42.624107 39.430183,32.819776 48.297655,31.702368 56.617124,38.252644 68.19948,48.96114 70.801195,60.484518 73.653296,75.334496 l 5.929078,38.944424 3.848362,23.93647 z"
       id="path411"
       sodipodi:nodetypes="ccccccccc" />
    <path
       id="path621"
       style="fill:#6fabda;fill-opacity:1;stroke:none;stroke-width:1.06291;stroke-linecap:butt;stroke-linejoin:miter;stroke-dasharray:none;stroke-opacity:1"
       d="m 58.317223,177.58252 c -1.29117,0.0575 -8.05645,-0.0742 -9.041336,1.14857 -1.740856,2.16125 1.106338,4.16685 1.620102,8.15711 0.545745,4.23865 0.921945,6.23343 2.427806,11.96212 1.156102,3.41109 4.288303,6.34532 8.213261,6.52646 l 22.208157,0.25046 c 2.32269,-0.0447 4.20846,-1.52584 5.120861,-2.24707 2.259258,-1.78585 8.932635,-9.5932 9.168994,-17.909 0.191361,-5.6139 -5.183109,-7.65065 -8.386282,-7.78318 z m 1.653489,2.13265 28.1653,0.088 c 2.87583,0.11899 7.673836,1.39907 7.502031,6.43926 -0.212204,7.46598 -6.927949,13.69668 -8.500689,15.5541 -0.674742,0.79687 -2.494864,1.70533 -4.580191,1.74552 l -19.687027,0.11957 c -3.523853,-0.16263 -5.879815,-2.5505 -6.917771,-5.613 -1.351973,-5.14326 -2.512245,-11.12112 -1.255942,-14.46083 0.622304,-1.65431 2.697475,-3.75766 5.274289,-3.87254 z"
       sodipodi:nodetypes="csscccsccccccscccscc" />
    <path
       style="fill:#6d9f71;fill-opacity:1;stroke:none;stroke-width:0.264583px;stroke-linecap:butt;stroke-linejoin:miter;stroke-opacity:1"
       d="m 46.576718,175.74821 c -8.637975,13.40242 -12.723509,17.76451 -26.474225,21.08716 4.357325,3.15793 9.94772,7.67065 19.463555,8.11266 -6.025134,5.18864 -10.071001,9.55931 -15.567927,13.00946 6.512012,2.29858 13.024024,2.82453 19.536036,1.47095 -4.534818,4.72234 -10.139157,9.11172 -11.026266,14.96969 6.253393,-0.80674 9.064183,-2.6606 16.917363,-0.44817 -5.52622,3.50719 -10.495674,6.83293 -12.497981,13.45215 13.443418,-4.55641 17.297869,-5.5212 30.741287,-4.67362 C 42.446447,219.97401 44.931024,200.42684 46.576718,175.74821 Z"
       id="path706"
       sodipodi:nodetypes="cccccccccc" />
    <path
       style="fill:#6d9f71;fill-opacity:1;stroke:none;stroke-width:0.264583px;stroke-linecap:butt;stroke-linejoin:miter;stroke-opacity:1"
       d="m 162.09702,174.957 c 7.95571,14.79798 14.05034,18.55612 27.80105,21.87877 -4.35732,3.15793 -9.94772,7.67065 -19.46355,8.11266 6.02513,5.18864 10.071,9.55931 15.56792,13.00946 -6.51201,2.29858 -13.02402,2.82453 -19.53603,1.47095 4.53482,4.72234 10.13915,9.11172 11.02626,14.96969 -6.25339,-0.80674 -9.06418,-2.6606 -16.91736,-0.44817 5.52622,3.50719 10.49567,6.83293 12.49798,13.45215 -13.44342,-4.55641 -17.29787,-5.5212 -30.74129,-4.67362 25.22212,-22.75448 21.41072,-43.09326 19.76502,-67.77189 z"
       id="path706-9"
       sodipodi:nodetypes="cccccccccc" />
    <path
       id="path708"
       style="fill:#e4e3d3;fill-opacity:1;stroke:none;stroke-width:0.264583px;stroke-linecap:butt;stroke-linejoin:miter;stroke-opacity:1"
       d="M 67.243441 218.19805 C 60.226702 218.54645 58.015148 221.20344 57.335002 224.12844 C 55.05579 233.72593 62.619396 238.99811 66.92098 242.80999 C 77.983372 252.77902 91.548444 256.29464 104.99979 256.34094 C 118.45114 256.29464 132.01673 252.77902 143.07912 242.80999 C 147.38071 238.99811 154.94432 233.72593 152.6651 224.12844 C 151.98495 221.20344 149.7734 218.54645 142.75666 218.19805 C 131.50364 218.17945 124.14027 249.80269 104.99979 240.40445 C 85.859314 249.80269 78.496458 218.17945 67.243441 218.19805 z " />
    <path
       style="fill:#2e2d4d;fill-opacity:1;stroke:none;stroke-width:0.264583px;stroke-linecap:butt;stroke-linejoin:miter;stroke-opacity:1"
       d="m 154.79528,161.15377 12.26795,-33.57331 14.15523,-38.359838 c 5.72429,-17.999339 4.53435,-35.253807 -3.19307,-46.596604 -7.45561,-9.804331 -16.32308,-10.921739 -24.64255,-4.371463 -11.58235,10.708496 -14.18407,22.231874 -17.03617,37.081852 l -5.92908,38.944423 -3.84836,23.93647 z"
       id="path411-7"
       sodipodi:nodetypes="ccccccccc" />
    <path
       style="fill:#24233b;fill-opacity:1;stroke:none;stroke-width:0.264583px;stroke-linecap:butt;stroke-linejoin:miter;stroke-opacity:1"
       d="m 163.06366,176.15918 c 10.70656,-2.73047 14.15633,-8.01241 14.15633,-8.01241 l -12.20148,-9.01084 12.85285,-5.13278 c -4.9658,-4.96195 -10.54023,-10.29801 -14.89335,-16.76415 l -8.73918,23.84226 c 1.9059,4.8469 5.52979,10.65271 8.82483,15.07792 z"
       id="path445-6"
       sodipodi:nodetypes="ccccccc" />
    <path
       id="path14814"
       style="fill:#337357;fill-opacity:1;stroke:none;stroke-width:0.264583px;stroke-linecap:butt;stroke-linejoin:miter;stroke-opacity:1"
       d="m 116.48746,209.80732 c 0.65627,2.95581 0.77023,5.90871 -2.09134,9.43715 l -9.39633,7.48223 -9.395806,-7.48275 c -2.861572,-3.52843 -2.747613,-6.48134 -2.091346,-9.43715 1.842695,-9.45318 8.143122,-17.15235 11.625912,-17.14985 3.91294,0.003 9.22114,9.30841 11.34891,17.15037 z"
       sodipodi:nodetypes="cccccsc" />
    <path
       style="fill:#6d9f71;fill-opacity:1;stroke:none;stroke-width:0.264583px;stroke-linecap:butt;stroke-linejoin:miter;stroke-opacity:1"
       d="m 55.196879,160.9976 c 2.934728,-5.87831 7.543847,-15.41262 14.26155,-21.29093 -0.484957,2.70957 -0.261664,5.23832 1.078693,7.48189 4.366108,-2.63327 7.955738,-6.46741 12.440283,-8.77153 7.533204,-3.8705 15.900176,-6.38093 22.364345,-13.22241 -0.94395,5.45174 -2.92763,10.79679 -8.124074,15.8122 6.411154,-3.08827 11.523984,-7.13959 18.159304,-9.41097 8.87216,-3.03708 22.76904,-8.13162 33.00055,-8.61521 -5.38682,6.11844 -14.8911,8.51843 -17.4805,15.76137 13.79918,0.624 21.45991,1.41127 30.67362,-1.1852 4.80473,-1.354 7.6091,-2.92885 12.8482,-5.73489 -1.69692,6.12065 -11.78236,16.52515 -14.37179,18.40009 15.90606,0.64016 23.34037,3.1209 36.99118,11.27093 -16.53353,0.92361 -24.48534,2.90555 -36.28545,11.39215 l -33.73927,0.64465 -38.785158,-3.71242 z"
       id="path18750"
       sodipodi:nodetypes="cccsccsccsccccccc" />
    <path
       id="path621-3"
       style="fill:#6fabda;fill-opacity:1;stroke:none;stroke-width:1.06291;stroke-linecap:butt;stroke-linejoin:miter;stroke-dasharray:none;stroke-opacity:1"
       d="m 151.68804,177.583 c 1.29117,0.0575 8.05649,-0.0742 9.04139,1.14857 1.74086,2.16125 -1.10635,4.16685 -1.62012,8.15711 -0.54574,4.23865 -0.92195,6.23343 -2.42782,11.96212 -1.1561,3.41109 -4.28832,6.34532 -8.2133,6.52646 l -22.20829,0.25046 c -2.3227,-0.0447 -4.20848,-1.52584 -5.12089,-2.24707 -2.25927,-1.78585 -8.93268,-9.5932 -9.16904,-17.909 -0.19136,-5.6139 5.18314,-7.65065 8.38633,-7.78318 z m -1.6535,2.13265 -28.16546,0.088 c -2.87585,0.11899 -7.67388,1.39907 -7.50208,6.43926 0.21222,7.46598 6.92799,13.69668 8.50074,15.5541 0.67475,0.79687 2.49488,1.70533 4.58022,1.74552 l 19.68714,0.11957 c 3.52387,-0.16263 5.87984,-2.5505 6.91781,-5.613 1.35198,-5.14326 2.51225,-11.12112 1.25595,-14.46083 -0.62231,-1.65431 -2.69749,-3.75766 -5.27432,-3.87254 z"
       sodipodi:nodetypes="csscccsccccccscccscc" />
  </g>
</svg>
